<svg id="svg" version="1.1" xmlns="http://www.w3.org/2000/svg" xmlns:xlink="http://www.w3.org/1999/xlink" width="400" height="520.1916495550993" viewBox="0, 0, 400,520.1916495550993"><g id="svgg"><path id="path0" d="M314.579 273.747 C 285.552 290.314,273.932 297.080,273.957 297.398 C 273.977 297.643,285.250 317.317,299.008 341.117 L 324.025 384.391 338.535 384.392 C 363.866 384.394,371.250 382.974,380.420 376.337 C 398.903 362.959,405.247 339.297,395.504 320.072 C 394.175 317.451,355.874 251.184,355.426 250.732 C 355.321 250.627,336.940 260.983,314.579 273.747 M237.782 400.994 C 224.832 422.620,214.198 440.479,214.151 440.679 C 214.046 441.123,261.373 520.192,261.744 520.192 C 261.910 520.192,262.034 514.197,262.079 504.107 L 262.149 488.022 288.980 487.864 C 316.901 487.699,316.529 487.716,320.329 486.480 C 326.615 484.435,330.000 481.247,334.860 472.796 C 356.771 434.693,384.418 386.522,384.782 385.813 C 385.561 384.298,385.198 384.353,382.204 386.209 C 374.830 390.778,367.640 393.163,358.795 393.974 C 356.911 394.147,338.239 394.250,308.898 394.250 L 262.012 394.251 262.012 377.960 C 262.012 365.110,261.940 361.670,261.670 361.672 C 261.482 361.673,250.732 379.368,237.782 400.994 " stroke="none" fill="#6c3454" fill-rule="evenodd"></path><path id="path1" d="M75.838 270.525 C 69.890 270.641,54.490 270.928,41.615 271.162 C 2.077 271.882,0.547 271.922,0.555 272.251 C 0.558 272.417,6.841 276.108,14.516 280.453 C 22.191 284.798,28.425 288.433,28.368 288.530 C 23.870 296.325,2.870 333.219,2.369 334.207 C -0.771 340.411,-0.687 348.342,2.589 354.765 C 4.561 358.632,55.712 446.360,56.063 446.477 C 56.300 446.556,56.371 445.391,56.336 441.978 C 56.206 429.173,58.273 423.835,73.705 397.125 C 98.597 354.043,109.221 335.804,109.474 335.719 C 109.623 335.670,115.330 338.824,122.155 342.729 C 135.794 350.532,137.988 351.709,137.988 351.226 C 137.988 350.513,94.066 271.345,93.315 270.705 C 92.680 270.165,93.757 270.176,75.838 270.525 M86.993 393.771 C 86.745 393.960,84.259 398.214,81.468 403.226 C 78.676 408.238,75.667 413.597,74.781 415.136 C 63.274 435.119,63.402 454.599,75.145 470.202 C 81.376 478.482,91.501 484.909,101.437 486.893 C 106.132 487.831,108.501 487.881,148.460 487.883 L 188.364 487.885 188.364 440.657 L 188.364 393.429 137.903 393.429 C 97.957 393.429,87.348 393.500,86.993 393.771 " stroke="none" fill="#4c6c2c" fill-rule="evenodd"></path><path id="path2" d="M208.457 0.283 C 186.366 1.984,169.282 14.617,162.868 33.992 C 160.487 41.185,161.614 43.716,168.211 45.986 C 173.758 47.894,177.063 47.232,178.112 44.003 C 181.839 32.529,190.728 23.412,201.128 20.394 C 223.972 13.767,247.042 27.675,247.973 48.636 C 248.698 64.941,237.859 76.801,218.617 80.757 C 210.274 82.472,206.574 84.537,204.682 88.537 C 203.175 91.721,203.116 92.839,203.626 108.556 C 203.812 114.278,203.965 121.454,203.967 124.504 L 203.970 130.048 185.603 130.048 C 165.894 130.048,166.141 130.028,168.672 131.379 C 178.377 136.560,184.780 142.541,190.456 151.727 C 194.308 157.962,236.817 232.285,236.630 232.458 C 236.511 232.569,230.315 236.113,222.861 240.334 C 215.211 244.666,209.270 248.196,209.220 248.440 C 209.144 248.812,209.557 248.871,212.232 248.872 C 214.818 248.874,279.300 249.764,295.568 250.022 C 301.767 250.121,300.966 250.710,305.337 242.841 C 307.300 239.306,317.225 221.506,327.392 203.285 C 337.559 185.065,345.933 169.942,346.003 169.678 C 346.242 168.764,345.328 169.252,331.830 177.248 L 318.279 185.275 317.444 183.876 C 316.985 183.107,310.955 172.838,304.044 161.055 C 289.167 135.692,289.028 135.503,283.231 132.632 C 278.033 130.058,280.011 130.208,250.064 130.112 L 223.742 130.027 223.584 126.547 C 223.496 124.633,223.390 117.786,223.348 111.332 L 223.272 99.598 227.878 98.009 C 257.672 87.725,272.843 61.713,264.173 35.778 C 256.408 12.548,234.060 -1.689,208.457 0.283 M136.071 134.176 C 123.668 135.749,112.889 142.530,106.079 153.046 C 104.200 155.947,65.908 222.104,65.875 222.505 C 65.828 223.087,147.085 270.243,147.466 269.854 C 148.356 268.947,197.707 183.099,197.560 182.715 C 197.027 181.326,180.899 154.807,179.157 152.455 C 169.044 138.803,153.061 132.022,136.071 134.176 " stroke="none" fill="#dc5c14" fill-rule="evenodd"></path><path id="path3" d="" stroke="none" fill="#885058" fill-rule="evenodd"></path><path id="path4" d="" stroke="none" fill="#c45038" fill-rule="evenodd"></path></g></svg>