<svg width="60" height="60" viewBox="0 0 60 60" fill="none" xmlns="http://www.w3.org/2000/svg">
<rect width="60" height="60" fill="#DC5812"/>
<path d="M30 26.8105C33.3223 26.8105 36.0645 29.5527 36.0645 32.875C36.0645 36.25 33.3223 38.9395 30 38.9395C26.625 38.9395 23.9355 36.25 23.9355 32.875C23.9355 29.5527 26.625 26.8105 30 26.8105ZM30 36.8301C32.1621 36.8301 33.9023 35.0898 33.9023 32.875C33.9023 30.7129 32.1621 28.9727 30 28.9727C27.7852 28.9727 26.0449 30.7129 26.0449 32.875C26.0449 35.0898 27.8379 36.8301 30 36.8301ZM37.6992 26.5996C37.6992 25.8086 37.0664 25.1758 36.2754 25.1758C35.4844 25.1758 34.8516 25.8086 34.8516 26.5996C34.8516 27.3906 35.4844 28.0234 36.2754 28.0234C37.0664 28.0234 37.6992 27.3906 37.6992 26.5996ZM41.707 28.0234C41.8125 29.9746 41.8125 35.8281 41.707 37.7793C41.6016 39.6777 41.1797 41.3125 39.8086 42.7363C38.4375 44.1074 36.75 44.5293 34.8516 44.6348C32.9004 44.7402 27.0469 44.7402 25.0957 44.6348C23.1973 44.5293 21.5625 44.1074 20.1387 42.7363C18.7676 41.3125 18.3457 39.6777 18.2402 37.7793C18.1348 35.8281 18.1348 29.9746 18.2402 28.0234C18.3457 26.125 18.7676 24.4375 20.1387 23.0664C21.5625 21.6953 23.1973 21.2734 25.0957 21.168C27.0469 21.0625 32.9004 21.0625 34.8516 21.168C36.75 21.2734 38.4375 21.6953 39.8086 23.0664C41.1797 24.4375 41.6016 26.125 41.707 28.0234ZM39.1758 39.8359C39.8086 38.3066 39.6504 34.6152 39.6504 32.875C39.6504 31.1875 39.8086 27.4961 39.1758 25.9141C38.7539 24.9121 37.9629 24.0684 36.9609 23.6992C35.3789 23.0664 31.6875 23.2246 30 23.2246C28.2598 23.2246 24.5684 23.0664 23.0391 23.6992C21.9844 24.1211 21.1934 24.9121 20.7715 25.9141C20.1387 27.4961 20.2969 31.1875 20.2969 32.875C20.2969 34.6152 20.1387 38.3066 20.7715 39.8359C21.1934 40.8906 21.9844 41.6816 23.0391 42.1035C24.5684 42.7363 28.2598 42.5781 30 42.5781C31.6875 42.5781 35.3789 42.7363 36.9609 42.1035C37.9629 41.6816 38.8066 40.8906 39.1758 39.8359Z" fill="#F3F1E0"/>
</svg>
